# xmcd
#
# Track frame offsets:
#	150
#	15667
#	30827
#	48750
#	63232
#	76855
#	94225
#	109590
#	127562
#	142037
#
# Disc length: 2093 seconds
#
# Revision: 1
# Processed by: cddbd v1.4PL0 Copyright (c) Steve Scherf et al.
# Submitted via: audiograbber 1.82.02
#
DISCID=6a082b0a
DTITLE=Diana Murell - Diana Murell
DYEAR=1993
DGENRE=Country
TTITLE0=Mama's Cedar Chest
TTITLE1=He Two-Stepped His Way (Into My Heart)
TTITLE2=Open House
TTITLE3=Oh, My Aching Heart
TTITLE4=Chances Are
TTITLE5=So Far, So Good
TTITLE6=If You Leave Me (I'LL Go Crazy)
TTITLE7=No One But You
TTITLE8=I Slipped (But I Didn't Fall)
TTITLE9=Hearts Are Gonna Roll
EXTD=
EXTT0=
EXTT1=
EXTT2=
EXTT3=
EXTT4=
EXTT5=
EXTT6=
EXTT7=
EXTT8=
EXTT9=
PLAYORDER=
